<svg width="22" height="22" viewBox="0 0 22 22" fill="none" xmlns="http://www.w3.org/2000/svg">
<path d="M21.1393 9.07453L12.1785 9.0741C11.7828 9.0741 11.462 9.39479 11.462 9.79048V12.6531C11.462 13.0487 11.7828 13.3695 12.1784 13.3695H17.2246C16.6721 14.8035 15.6407 16.0044 14.3249 16.7675L16.4766 20.4922C19.9282 18.4961 21.9688 14.9935 21.9688 11.0727C21.9688 10.5145 21.9276 10.1154 21.8453 9.66601C21.7828 9.32459 21.4864 9.07453 21.1393 9.07453Z" fill="#167EE6"/>
<path d="M10.9843 17.6705C8.51479 17.6705 6.35894 16.3212 5.20108 14.3246L1.47644 16.4714C3.37189 19.7565 6.92266 21.9687 10.9843 21.9687C12.9768 21.9687 14.8569 21.4322 16.4765 20.4973V20.4922L14.3248 16.7674C13.3406 17.3382 12.2016 17.6705 10.9843 17.6705Z" fill="#12B347"/>
<path d="M16.4766 20.4974V20.4923L14.3249 16.7675C13.3406 17.3383 12.2018 17.6705 10.9844 17.6705V21.9688C12.9769 21.9688 14.857 21.4323 16.4766 20.4974Z" fill="#0F993E"/>
<path d="M4.29823 10.9843C4.29823 9.76702 4.63042 8.62821 5.20113 7.64403L1.47649 5.49719C0.536431 7.11168 0 8.98666 0 10.9843C0 12.9819 0.536431 14.8568 1.47649 16.4713L5.20113 14.3245C4.63042 13.3403 4.29823 12.2015 4.29823 10.9843Z" fill="#FFD500"/>
<path d="M10.9843 4.29823C12.5947 4.29823 14.0739 4.87045 15.2292 5.82227C15.5143 6.05706 15.9285 6.04011 16.1896 5.77901L18.2179 3.75077C18.5141 3.45454 18.493 2.96964 18.1766 2.69511C16.2408 1.01575 13.7221 0 10.9843 0C6.92266 0 3.37189 2.21219 1.47644 5.49728L5.20108 7.64412C6.35894 5.6475 8.51479 4.29823 10.9843 4.29823Z" fill="#FF4B26"/>
<path d="M15.2293 5.82227C15.5143 6.05706 15.9287 6.04011 16.1897 5.77902L18.218 3.75077C18.5141 3.45454 18.493 2.96964 18.1766 2.69511C16.2409 1.01571 13.7222 0 10.9844 0V4.29823C12.5947 4.29823 14.0739 4.87045 15.2293 5.82227Z" fill="#D93F21"/>
</svg>
